<mxfile host="app.diagrams.net" modified="2021-04-15T12:03:57.052Z" agent="5.0 (Windows)" etag="60lKmiAYlmHq-dRzDMEv" version="14.6.0" type="github">
  <diagram id="C5RBs43oDa-KdzZeNtuy" name="Page-1">
    <mxGraphModel dx="1422" dy="1960" grid="1" gridSize="10" guides="1" tooltips="1" connect="1" arrows="1" fold="1" page="1" pageScale="1" pageWidth="827" pageHeight="1169" math="0" shadow="0">
      <root>
        <mxCell id="WIyWlLk6GJQsqaUBKTNV-0" />
        <mxCell id="WIyWlLk6GJQsqaUBKTNV-1" parent="WIyWlLk6GJQsqaUBKTNV-0" />
        <mxCell id="Icj4EGb5falAnDhdJ-2L-0" value="Start Registration" style="ellipse;whiteSpace=wrap;html=1;" vertex="1" parent="WIyWlLk6GJQsqaUBKTNV-1">
          <mxGeometry x="21" y="20" width="120" height="80" as="geometry" />
        </mxCell>
        <mxCell id="Icj4EGb5falAnDhdJ-2L-1" value="" style="endArrow=classic;html=1;" edge="1" parent="WIyWlLk6GJQsqaUBKTNV-1" target="Icj4EGb5falAnDhdJ-2L-2">
          <mxGeometry width="50" height="50" relative="1" as="geometry">
            <mxPoint x="81" y="100" as="sourcePoint" />
            <mxPoint x="81" y="150" as="targetPoint" />
          </mxGeometry>
        </mxCell>
        <mxCell id="Icj4EGb5falAnDhdJ-2L-2" value="&lt;div&gt;get user mobile&lt;/div&gt;" style="rounded=0;whiteSpace=wrap;html=1;" vertex="1" parent="WIyWlLk6GJQsqaUBKTNV-1">
          <mxGeometry x="21" y="120" width="120" height="40" as="geometry" />
        </mxCell>
        <mxCell id="Icj4EGb5falAnDhdJ-2L-3" value="" style="endArrow=classic;html=1;startArrow=none;" edge="1" parent="WIyWlLk6GJQsqaUBKTNV-1" source="Icj4EGb5falAnDhdJ-2L-21" target="Icj4EGb5falAnDhdJ-2L-4">
          <mxGeometry width="50" height="50" relative="1" as="geometry">
            <mxPoint x="80" y="160" as="sourcePoint" />
            <mxPoint x="80" y="230" as="targetPoint" />
          </mxGeometry>
        </mxCell>
        <mxCell id="Icj4EGb5falAnDhdJ-2L-4" value="Send Verification Code" style="rounded=0;whiteSpace=wrap;html=1;" vertex="1" parent="WIyWlLk6GJQsqaUBKTNV-1">
          <mxGeometry x="21" y="380" width="120" height="40" as="geometry" />
        </mxCell>
        <mxCell id="Icj4EGb5falAnDhdJ-2L-6" value="" style="endArrow=classic;html=1;" edge="1" parent="WIyWlLk6GJQsqaUBKTNV-1">
          <mxGeometry width="50" height="50" relative="1" as="geometry">
            <mxPoint x="82" y="420" as="sourcePoint" />
            <mxPoint x="82" y="470" as="targetPoint" />
          </mxGeometry>
        </mxCell>
        <mxCell id="Icj4EGb5falAnDhdJ-2L-8" value="Redirect user to register form" style="rounded=0;whiteSpace=wrap;html=1;" vertex="1" parent="WIyWlLk6GJQsqaUBKTNV-1">
          <mxGeometry x="22" y="470" width="120" height="60" as="geometry" />
        </mxCell>
        <mxCell id="Icj4EGb5falAnDhdJ-2L-10" value="" style="endArrow=classic;html=1;exitX=0.5;exitY=1;exitDx=0;exitDy=0;" edge="1" parent="WIyWlLk6GJQsqaUBKTNV-1" source="Icj4EGb5falAnDhdJ-2L-8">
          <mxGeometry width="50" height="50" relative="1" as="geometry">
            <mxPoint x="81" y="540" as="sourcePoint" />
            <mxPoint x="81.7556064073226" y="550.7734553775745" as="targetPoint" />
          </mxGeometry>
        </mxCell>
        <mxCell id="Icj4EGb5falAnDhdJ-2L-11" value="&lt;div&gt;End Part 1&lt;/div&gt;" style="ellipse;whiteSpace=wrap;html=1;" vertex="1" parent="WIyWlLk6GJQsqaUBKTNV-1">
          <mxGeometry x="46" y="550" width="70" height="50" as="geometry" />
        </mxCell>
        <mxCell id="Icj4EGb5falAnDhdJ-2L-12" value="" style="curved=1;endArrow=classic;html=1;exitX=1;exitY=0.5;exitDx=0;exitDy=0;" edge="1" parent="WIyWlLk6GJQsqaUBKTNV-1" source="Icj4EGb5falAnDhdJ-2L-11">
          <mxGeometry width="50" height="50" relative="1" as="geometry">
            <mxPoint x="140" y="400" as="sourcePoint" />
            <mxPoint x="330" y="40" as="targetPoint" />
            <Array as="points">
              <mxPoint x="200" y="290" />
              <mxPoint x="200" y="110" />
              <mxPoint x="230" y="30" />
            </Array>
          </mxGeometry>
        </mxCell>
        <mxCell id="Icj4EGb5falAnDhdJ-2L-14" value="Start Part 2" style="ellipse;whiteSpace=wrap;html=1;" vertex="1" parent="WIyWlLk6GJQsqaUBKTNV-1">
          <mxGeometry x="320" y="10" width="100" height="70" as="geometry" />
        </mxCell>
        <mxCell id="Icj4EGb5falAnDhdJ-2L-15" value="Get User information including confirmation code" style="rounded=0;whiteSpace=wrap;html=1;" vertex="1" parent="WIyWlLk6GJQsqaUBKTNV-1">
          <mxGeometry x="310" y="120" width="120" height="60" as="geometry" />
        </mxCell>
        <mxCell id="Icj4EGb5falAnDhdJ-2L-16" value="" style="endArrow=classic;html=1;" edge="1" parent="WIyWlLk6GJQsqaUBKTNV-1" source="Icj4EGb5falAnDhdJ-2L-14" target="Icj4EGb5falAnDhdJ-2L-15">
          <mxGeometry width="50" height="50" relative="1" as="geometry">
            <mxPoint x="390" y="430" as="sourcePoint" />
            <mxPoint x="440" y="380" as="targetPoint" />
          </mxGeometry>
        </mxCell>
        <mxCell id="Icj4EGb5falAnDhdJ-2L-17" value="submit form by user" style="rounded=0;whiteSpace=wrap;html=1;" vertex="1" parent="WIyWlLk6GJQsqaUBKTNV-1">
          <mxGeometry x="310" y="210" width="120" height="60" as="geometry" />
        </mxCell>
        <mxCell id="Icj4EGb5falAnDhdJ-2L-18" value="" style="endArrow=classic;html=1;exitX=0.5;exitY=1;exitDx=0;exitDy=0;" edge="1" parent="WIyWlLk6GJQsqaUBKTNV-1" source="Icj4EGb5falAnDhdJ-2L-15" target="Icj4EGb5falAnDhdJ-2L-17">
          <mxGeometry width="50" height="50" relative="1" as="geometry">
            <mxPoint x="390" y="430" as="sourcePoint" />
            <mxPoint x="440" y="380" as="targetPoint" />
          </mxGeometry>
        </mxCell>
        <mxCell id="Icj4EGb5falAnDhdJ-2L-19" value="is mobile exists" style="rhombus;whiteSpace=wrap;html=1;" vertex="1" parent="WIyWlLk6GJQsqaUBKTNV-1">
          <mxGeometry x="41" y="210" width="80" height="80" as="geometry" />
        </mxCell>
        <mxCell id="Icj4EGb5falAnDhdJ-2L-20" value="" style="endArrow=none;html=1;" edge="1" parent="WIyWlLk6GJQsqaUBKTNV-1" target="Icj4EGb5falAnDhdJ-2L-19">
          <mxGeometry width="50" height="50" relative="1" as="geometry">
            <mxPoint x="80" y="160" as="sourcePoint" />
            <mxPoint x="80.91666666666674" y="380" as="targetPoint" />
          </mxGeometry>
        </mxCell>
        <mxCell id="Icj4EGb5falAnDhdJ-2L-21" value="&lt;font style=&quot;font-size: 16px&quot; color=&quot;#990000&quot;&gt;NO&lt;/font&gt;" style="text;html=1;strokeColor=none;fillColor=none;align=center;verticalAlign=middle;whiteSpace=wrap;rounded=0;" vertex="1" parent="WIyWlLk6GJQsqaUBKTNV-1">
          <mxGeometry x="60" y="310" width="40" height="20" as="geometry" />
        </mxCell>
        <mxCell id="Icj4EGb5falAnDhdJ-2L-22" value="" style="endArrow=none;html=1;startArrow=none;" edge="1" parent="WIyWlLk6GJQsqaUBKTNV-1" source="Icj4EGb5falAnDhdJ-2L-19" target="Icj4EGb5falAnDhdJ-2L-21">
          <mxGeometry width="50" height="50" relative="1" as="geometry">
            <mxPoint x="81" y="290" as="sourcePoint" />
            <mxPoint x="81" y="380" as="targetPoint" />
          </mxGeometry>
        </mxCell>
        <mxCell id="Icj4EGb5falAnDhdJ-2L-24" value="" style="curved=1;endArrow=classic;html=1;exitX=1;exitY=0.5;exitDx=0;exitDy=0;" edge="1" parent="WIyWlLk6GJQsqaUBKTNV-1" source="Icj4EGb5falAnDhdJ-2L-19" target="Icj4EGb5falAnDhdJ-2L-25">
          <mxGeometry width="50" height="50" relative="1" as="geometry">
            <mxPoint x="390" y="430" as="sourcePoint" />
            <mxPoint x="590" y="-20" as="targetPoint" />
            <Array as="points">
              <mxPoint x="150" y="190" />
              <mxPoint x="200" y="50" />
              <mxPoint x="260" y="-40" />
            </Array>
          </mxGeometry>
        </mxCell>
        <mxCell id="Icj4EGb5falAnDhdJ-2L-25" value="Login System" style="ellipse;whiteSpace=wrap;html=1;" vertex="1" parent="WIyWlLk6GJQsqaUBKTNV-1">
          <mxGeometry x="530" y="-60" width="120" height="80" as="geometry" />
        </mxCell>
        <mxCell id="Icj4EGb5falAnDhdJ-2L-26" value="&lt;p style=&quot;line-height: 190% ; font-size: 19px&quot;&gt;&lt;font style=&quot;font-size: 19px&quot; color=&quot;#00FF00&quot;&gt;Yes&lt;/font&gt;&lt;/p&gt;" style="text;html=1;strokeColor=none;fillColor=none;align=center;verticalAlign=middle;whiteSpace=wrap;rounded=0;" vertex="1" parent="WIyWlLk6GJQsqaUBKTNV-1">
          <mxGeometry x="116" y="180" width="50" height="30" as="geometry" />
        </mxCell>
        <mxCell id="Icj4EGb5falAnDhdJ-2L-27" value="if fields are valid" style="rhombus;whiteSpace=wrap;html=1;" vertex="1" parent="WIyWlLk6GJQsqaUBKTNV-1">
          <mxGeometry x="330" y="310" width="80" height="80" as="geometry" />
        </mxCell>
        <mxCell id="Icj4EGb5falAnDhdJ-2L-29" value="" style="endArrow=classic;html=1;exitX=0.5;exitY=1;exitDx=0;exitDy=0;entryX=0.5;entryY=0;entryDx=0;entryDy=0;" edge="1" parent="WIyWlLk6GJQsqaUBKTNV-1" source="Icj4EGb5falAnDhdJ-2L-17" target="Icj4EGb5falAnDhdJ-2L-27">
          <mxGeometry width="50" height="50" relative="1" as="geometry">
            <mxPoint x="390" y="370" as="sourcePoint" />
            <mxPoint x="440" y="320" as="targetPoint" />
          </mxGeometry>
        </mxCell>
        <mxCell id="Icj4EGb5falAnDhdJ-2L-31" value="" style="curved=1;endArrow=classic;html=1;exitX=1;exitY=0.5;exitDx=0;exitDy=0;entryX=1;entryY=0.75;entryDx=0;entryDy=0;" edge="1" parent="WIyWlLk6GJQsqaUBKTNV-1" source="Icj4EGb5falAnDhdJ-2L-27" target="Icj4EGb5falAnDhdJ-2L-15">
          <mxGeometry width="50" height="50" relative="1" as="geometry">
            <mxPoint x="390" y="370" as="sourcePoint" />
            <mxPoint x="490" y="210" as="targetPoint" />
            <Array as="points">
              <mxPoint x="460" y="320" />
              <mxPoint x="480" y="240" />
            </Array>
          </mxGeometry>
        </mxCell>
        <mxCell id="Icj4EGb5falAnDhdJ-2L-32" value="if confirmation code is match" style="rhombus;whiteSpace=wrap;html=1;" vertex="1" parent="WIyWlLk6GJQsqaUBKTNV-1">
          <mxGeometry x="245" y="450" width="160" height="160" as="geometry" />
        </mxCell>
        <mxCell id="Icj4EGb5falAnDhdJ-2L-33" value="" style="endArrow=classic;html=1;entryX=0.5;entryY=0;entryDx=0;entryDy=0;exitX=0.5;exitY=1;exitDx=0;exitDy=0;startArrow=none;" edge="1" parent="WIyWlLk6GJQsqaUBKTNV-1" source="Icj4EGb5falAnDhdJ-2L-36" target="Icj4EGb5falAnDhdJ-2L-32">
          <mxGeometry width="50" height="50" relative="1" as="geometry">
            <mxPoint x="390" y="370" as="sourcePoint" />
            <mxPoint x="440" y="320" as="targetPoint" />
          </mxGeometry>
        </mxCell>
        <mxCell id="Icj4EGb5falAnDhdJ-2L-34" value="&lt;font style=&quot;font-size: 16px&quot; color=&quot;#990000&quot;&gt;NO&lt;/font&gt;" style="text;html=1;strokeColor=none;fillColor=none;align=center;verticalAlign=middle;whiteSpace=wrap;rounded=0;" vertex="1" parent="WIyWlLk6GJQsqaUBKTNV-1">
          <mxGeometry x="430" y="300" width="40" height="20" as="geometry" />
        </mxCell>
        <mxCell id="Icj4EGb5falAnDhdJ-2L-36" value="&lt;p style=&quot;line-height: 190% ; font-size: 19px&quot;&gt;&lt;font style=&quot;font-size: 19px&quot; color=&quot;#00FF00&quot;&gt;Yes&lt;/font&gt;&lt;/p&gt;" style="text;html=1;strokeColor=none;fillColor=none;align=center;verticalAlign=middle;whiteSpace=wrap;rounded=0;" vertex="1" parent="WIyWlLk6GJQsqaUBKTNV-1">
          <mxGeometry x="300" y="390" width="50" height="30" as="geometry" />
        </mxCell>
        <mxCell id="Icj4EGb5falAnDhdJ-2L-38" value="" style="endArrow=none;html=1;entryX=0.5;entryY=0;entryDx=0;entryDy=0;exitX=0.5;exitY=1;exitDx=0;exitDy=0;" edge="1" parent="WIyWlLk6GJQsqaUBKTNV-1" source="Icj4EGb5falAnDhdJ-2L-27" target="Icj4EGb5falAnDhdJ-2L-36">
          <mxGeometry width="50" height="50" relative="1" as="geometry">
            <mxPoint x="370" y="390" as="sourcePoint" />
            <mxPoint x="334" y="430" as="targetPoint" />
          </mxGeometry>
        </mxCell>
        <mxCell id="Icj4EGb5falAnDhdJ-2L-39" value="" style="curved=1;endArrow=classic;html=1;exitX=1;exitY=0.5;exitDx=0;exitDy=0;entryX=1;entryY=0.714;entryDx=0;entryDy=0;entryPerimeter=0;" edge="1" parent="WIyWlLk6GJQsqaUBKTNV-1" source="Icj4EGb5falAnDhdJ-2L-32" target="Icj4EGb5falAnDhdJ-2L-14">
          <mxGeometry width="50" height="50" relative="1" as="geometry">
            <mxPoint x="410" y="520" as="sourcePoint" />
            <mxPoint x="470" y="480" as="targetPoint" />
            <Array as="points">
              <mxPoint x="450" y="440" />
              <mxPoint x="510" y="230" />
            </Array>
          </mxGeometry>
        </mxCell>
        <mxCell id="Icj4EGb5falAnDhdJ-2L-40" value="&lt;font style=&quot;font-size: 16px&quot; color=&quot;#990000&quot;&gt;NO&lt;/font&gt;" style="text;html=1;strokeColor=none;fillColor=none;align=center;verticalAlign=middle;whiteSpace=wrap;rounded=0;" vertex="1" parent="WIyWlLk6GJQsqaUBKTNV-1">
          <mxGeometry x="440" y="395" width="40" height="20" as="geometry" />
        </mxCell>
      </root>
    </mxGraphModel>
  </diagram>
</mxfile>
